<svg class="icon" viewBox="0 0 1024 1024" version="1.1" xmlns="http://www.w3.org/2000/svg" width="200" height="200"><path d="M68.788706 0A38.731294 38.731294 0 0 0 30.117647 38.430118v918.528c0 21.082353 17.468235 38.369882 38.671059 38.369882h850.823529a38.731294 38.731294 0 0 0 38.731294-38.369882V230.219294L726.256941 0H68.788706z" fill="#1A90FF"></path><path d="M745.411765 505.072941l-104.809412-104.809412a30.117647 30.117647 0 0 0-42.465882 42.465883l83.425882 83.727059-83.727059 83.727058a30.117647 30.117647 0 1 0 42.465882 42.465883l104.809412-104.809412a30.117647 30.117647 0 0 0 0.301177-42.767059z m-348.16-104.809412a30.117647 30.117647 0 0 0-42.465883 0l-105.110588 104.809412a30.117647 30.117647 0 0 0 0 42.465883l104.809412 104.809411a30.117647 30.117647 0 0 0 42.465882-42.465882L313.825882 526.456471l83.425883-83.727059a30.117647 30.117647 0 0 0 0-42.465883z m142.45647-6.625882a30.117647 30.117647 0 0 0-38.851764 17.769412L423.454118 620.423529a30.117647 30.117647 0 1 0 56.32 21.082353L557.176471 432.489412a30.117647 30.117647 0 0 0-17.468236-38.851765z" fill="#FFFFFF" p-id="14820"></path><path d="M730.774588 0.120471V189.741176c0 20.841412 17.106824 37.948235 37.948236 37.948236H958.283294L730.774588 0z" fill="#ABD0FF"></path></svg>